<svg id="visual" viewBox="0 0 3840 2160" width="3840" height="2160" xmlns="http://www.w3.org/2000/svg" xmlns:xlink="http://www.w3.org/1999/xlink" version="1.1">
    <rect x="0" y="0" width="3840" height="2160" fill="#001220"></rect>
    <path d="M0 577L40 570.5C80 564 160 551 240 557.7C320 564.3 400 590.7 480 603C560 615.3 640 613.7 720 621.8C800 630 880 648 960 656.2C1040 664.3 1120 662.7 1200 644.5C1280 626.3 1360 591.7 1440 578.3C1520 565 1600 573 1680 583.5C1760 594 1840 607 1920 615C2000 623 2080 626 2160 605.3C2240 584.7 2320 540.3 2400 547.5C2480 554.7 2560 613.3 2640 634.8C2720 656.3 2800 640.7 2880 642.2C2960 643.7 3040 662.3 3120 645.5C3200 628.7 3280 576.3 3360 570.5C3440 564.7 3520 605.3 3600 618.2C3680 631 3760 616 3800 608.5L3840 601L3840 0L3800 0C3760 0 3680 0 3600 0C3520 0 3440 0 3360 0C3280 0 3200 0 3120 0C3040 0 2960 0 2880 0C2800 0 2720 0 2640 0C2560 0 2480 0 2400 0C2320 0 2240 0 2160 0C2080 0 2000 0 1920 0C1840 0 1760 0 1680 0C1600 0 1520 0 1440 0C1360 0 1280 0 1200 0C1120 0 1040 0 960 0C880 0 800 0 720 0C640 0 560 0 480 0C400 0 320 0 240 0C160 0 80 0 40 0L0 0Z" fill="#fa7268"></path>
    <path d="M0 576L40 558C80 540 160 504 240 508.5C320 513 400 558 480 556.7C560 555.3 640 507.7 720 499C800 490.3 880 520.7 960 524.7C1040 528.7 1120 506.3 1200 511.7C1280 517 1360 550 1440 556C1520 562 1600 541 1680 529.2C1760 517.3 1840 514.7 1920 529.3C2000 544 2080 576 2160 574.5C2240 573 2320 538 2400 513.8C2480 489.7 2560 476.3 2640 473.3C2720 470.3 2800 477.7 2880 491.2C2960 504.7 3040 524.3 3120 529.5C3200 534.7 3280 525.3 3360 518.3C3440 511.3 3520 506.7 3600 493.3C3680 480 3760 458 3800 447L3840 436L3840 0L3800 0C3760 0 3680 0 3600 0C3520 0 3440 0 3360 0C3280 0 3200 0 3120 0C3040 0 2960 0 2880 0C2800 0 2720 0 2640 0C2560 0 2480 0 2400 0C2320 0 2240 0 2160 0C2080 0 2000 0 1920 0C1840 0 1760 0 1680 0C1600 0 1520 0 1440 0C1360 0 1280 0 1200 0C1120 0 1040 0 960 0C880 0 800 0 720 0C640 0 560 0 480 0C400 0 320 0 240 0C160 0 80 0 40 0L0 0Z" fill="#f36567"></path>
    <path d="M0 419L40 412.7C80 406.3 160 393.7 240 398.2C320 402.7 400 424.3 480 435.3C560 446.3 640 446.7 720 444C800 441.3 880 435.7 960 441.8C1040 448 1120 466 1200 469.5C1280 473 1360 462 1440 441.2C1520 420.3 1600 389.7 1680 377.2C1760 364.7 1840 370.3 1920 394.7C2000 419 2080 462 2160 478.8C2240 495.7 2320 486.3 2400 479C2480 471.7 2560 466.3 2640 455.8C2720 445.3 2800 429.7 2880 428.5C2960 427.3 3040 440.7 3120 443.5C3200 446.3 3280 438.7 3360 447.7C3440 456.7 3520 482.3 3600 487.3C3680 492.3 3760 476.7 3800 468.8L3840 461L3840 0L3800 0C3760 0 3680 0 3600 0C3520 0 3440 0 3360 0C3280 0 3200 0 3120 0C3040 0 2960 0 2880 0C2800 0 2720 0 2640 0C2560 0 2480 0 2400 0C2320 0 2240 0 2160 0C2080 0 2000 0 1920 0C1840 0 1760 0 1680 0C1600 0 1520 0 1440 0C1360 0 1280 0 1200 0C1120 0 1040 0 960 0C880 0 800 0 720 0C640 0 560 0 480 0C400 0 320 0 240 0C160 0 80 0 40 0L0 0Z" fill="#eb5967"></path>
    <path d="M0 293L40 295.5C80 298 160 303 240 324.3C320 345.7 400 383.3 480 401.3C560 419.3 640 417.7 720 402.2C800 386.7 880 357.3 960 336.5C1040 315.7 1120 303.3 1200 306.8C1280 310.3 1360 329.7 1440 332.5C1520 335.3 1600 321.7 1680 312.3C1760 303 1840 298 1920 316.7C2000 335.3 2080 377.7 2160 377.3C2240 377 2320 334 2400 310C2480 286 2560 281 2640 287.2C2720 293.3 2800 310.7 2880 311.5C2960 312.3 3040 296.7 3120 300.7C3200 304.7 3280 328.3 3360 345.7C3440 363 3520 374 3600 383.7C3680 393.3 3760 401.7 3800 405.8L3840 410L3840 0L3800 0C3760 0 3680 0 3600 0C3520 0 3440 0 3360 0C3280 0 3200 0 3120 0C3040 0 2960 0 2880 0C2800 0 2720 0 2640 0C2560 0 2480 0 2400 0C2320 0 2240 0 2160 0C2080 0 2000 0 1920 0C1840 0 1760 0 1680 0C1600 0 1520 0 1440 0C1360 0 1280 0 1200 0C1120 0 1040 0 960 0C880 0 800 0 720 0C640 0 560 0 480 0C400 0 320 0 240 0C160 0 80 0 40 0L0 0Z" fill="#e34c67"></path>
    <path d="M0 241L40 239.3C80 237.7 160 234.3 240 235.5C320 236.7 400 242.3 480 247.3C560 252.3 640 256.7 720 259.5C800 262.3 880 263.7 960 255.7C1040 247.7 1120 230.3 1200 235.8C1280 241.3 1360 269.7 1440 268.5C1520 267.3 1600 236.7 1680 221.8C1760 207 1840 208 1920 210.7C2000 213.3 2080 217.7 2160 234.8C2240 252 2320 282 2400 283C2480 284 2560 256 2640 240C2720 224 2800 220 2880 232.2C2960 244.3 3040 272.7 3120 275.2C3200 277.7 3280 254.3 3360 246C3440 237.7 3520 244.3 3600 252.7C3680 261 3760 271 3800 276L3840 281L3840 0L3800 0C3760 0 3680 0 3600 0C3520 0 3440 0 3360 0C3280 0 3200 0 3120 0C3040 0 2960 0 2880 0C2800 0 2720 0 2640 0C2560 0 2480 0 2400 0C2320 0 2240 0 2160 0C2080 0 2000 0 1920 0C1840 0 1760 0 1680 0C1600 0 1520 0 1440 0C1360 0 1280 0 1200 0C1120 0 1040 0 960 0C880 0 800 0 720 0C640 0 560 0 480 0C400 0 320 0 240 0C160 0 80 0 40 0L0 0Z" fill="#da3f67"></path>
    <path d="M0 136L40 137.5C80 139 160 142 240 149.2C320 156.3 400 167.7 480 170.2C560 172.7 640 166.3 720 168C800 169.7 880 179.3 960 187C1040 194.7 1120 200.3 1200 199C1280 197.7 1360 189.3 1440 185.7C1520 182 1600 183 1680 175.7C1760 168.3 1840 152.7 1920 148.8C2000 145 2080 153 2160 163C2240 173 2320 185 2400 181C2480 177 2560 157 2640 153.8C2720 150.7 2800 164.3 2880 174.2C2960 184 3040 190 3120 199.2C3200 208.3 3280 220.7 3360 217C3440 213.3 3520 193.7 3600 178.2C3680 162.7 3760 151.3 3800 145.7L3840 140L3840 0L3800 0C3760 0 3680 0 3600 0C3520 0 3440 0 3360 0C3280 0 3200 0 3120 0C3040 0 2960 0 2880 0C2800 0 2720 0 2640 0C2560 0 2480 0 2400 0C2320 0 2240 0 2160 0C2080 0 2000 0 1920 0C1840 0 1760 0 1680 0C1600 0 1520 0 1440 0C1360 0 1280 0 1200 0C1120 0 1040 0 960 0C880 0 800 0 720 0C640 0 560 0 480 0C400 0 320 0 240 0C160 0 80 0 40 0L0 0Z" fill="#d03267"></path>
    <path d="M0 86L40 93.5C80 101 160 116 240 120.5C320 125 400 119 480 114.3C560 109.7 640 106.3 720 99C800 91.7 880 80.3 960 78.3C1040 76.3 1120 83.7 1200 87.8C1280 92 1360 93 1440 97.2C1520 101.3 1600 108.7 1680 116.2C1760 123.7 1840 131.3 1920 130.3C2000 129.3 2080 119.7 2160 116.3C2240 113 2320 116 2400 117.2C2480 118.3 2560 117.7 2640 115.7C2720 113.7 2800 110.3 2880 112.5C2960 114.7 3040 122.3 3120 124.8C3200 127.3 3280 124.7 3360 124.8C3440 125 3520 128 3600 132.5C3680 137 3760 143 3800 146L3840 149L3840 0L3800 0C3760 0 3680 0 3600 0C3520 0 3440 0 3360 0C3280 0 3200 0 3120 0C3040 0 2960 0 2880 0C2800 0 2720 0 2640 0C2560 0 2480 0 2400 0C2320 0 2240 0 2160 0C2080 0 2000 0 1920 0C1840 0 1760 0 1680 0C1600 0 1520 0 1440 0C1360 0 1280 0 1200 0C1120 0 1040 0 960 0C880 0 800 0 720 0C640 0 560 0 480 0C400 0 320 0 240 0C160 0 80 0 40 0L0 0Z" fill="#c62368"></path>
</svg>