<?xml version="1.0" encoding="utf-8"?>
<svg version="1.1" x="0px" y="0px" viewBox="0 0 2793.7864 1657.1458" enable-background="new 0 0 2793.7864 1657.1458" xmlns="http://www.w3.org/2000/svg">
  <defs>
    <linearGradient gradientUnits="userSpaceOnUse" x1="1315.53" y1="49.033" x2="1315.53" y2="1615.811" id="gradient-0" gradientTransform="matrix(-0.572254, -0.820077, 0.903813, -0.630684, 1918.493852, 2403.173843)">
      <stop offset="0" style="stop-color: rgb(179, 213, 202);"/>
      <stop offset="1" style="stop-color: rgb(66, 166, 206);"/>
    </linearGradient>
  </defs>
  <g id="Baby_Seal_-_Sit_-_Flipper_Orig"/>
  <g id="Baby_Seal_-_Sit_-_Flipper_Left"/>
  <g id="Baby_Seal_-_Sit_-_Body"/>
  <g id="Baby_Seal_-_Sit_-_Head"/>
  <g id="Baby_Seal_-_Sit_-_Flipper_Right"/>
  <g id="Baby_Seal_-_Sit_-_Spots"/>
  <g id="Baby_Seal_-_Sit_-_Eye_RIght"/>
  <g id="Baby_Seal_-_Sit_-_Eye_Left"/>
  <g id="Baby_Seal_-_Sit_-_Mouth"/>
  <g id="Baby_Seal_-_Sit_-_Lip"/>
  <g id="Baby_Seal_-_Sit_-_Nose"/>
  <path d="M 1708.032 510.202 C 1708.032 247.69 1910.828 34.857 2161.006 34.857 C 2411.184 34.857 2613.981 247.69 2613.981 510.202 L 2613.981 941.049 C 2613.981 1006.063 2602.053 1068.29 2580.267 1125.662 C 2667.464 1138.295 2730.276 1173.82 2730.276 1215.664 C 2730.276 1268.085 2631.693 1310.57 2510.087 1310.57 C 2493.628 1310.57 2477.592 1309.792 2462.164 1308.317 C 2374.896 1395.834 2256.64 1452.434 2125.254 1460.262 C 2092.312 1495.17 2048.437 1530.058 1996.957 1560.368 C 1859.26 1641.478 1719.249 1659.055 1684.28 1599.704 C 1664.357 1565.858 1682.873 1514.295 1727.999 1461.195 L 906.824 1461.195 C 906.824 1461.195 706.568 1457.75 469.048 1436.944 C 381.202 1429.244 233.235 1476.8 152.612 1601.635 C 165.616 1422.184 272.246 1297.349 272.246 1297.349 C 272.246 1297.349 191.623 1167.313 48.583 1175.704 C 290.451 1022.87 430.891 1162.111 430.891 1162.111 C 430.891 1162.111 469.048 1175.704 469.048 1093.375 L 469.107 1093.425 C 469.068 1091.185 469.048 1054.286 469.048 1052.036 L 472.198 1005.042 C 486.374 795.073 896.627 707.72 1372.81 676.217 L 1586.461 624.477 L 1708.032 510.202 Z" style="stroke-width: 21px; shape-rendering: crispedges; stroke: url(#gradient-0); fill: none;"/>
</svg>