<?xml version="1.0" encoding="utf-8"?>
<svg version="1.1" x="0px" y="0px" viewBox="0 0 2793.7864 1657.1458" enable-background="new 0 0 2793.7864 1657.1458" xmlns="http://www.w3.org/2000/svg">
  <defs>
    <linearGradient gradientUnits="userSpaceOnUse" x1="1315.53" y1="49.033" x2="1315.53" y2="1615.811" id="gradient-0" gradientTransform="matrix(-0.560325, -0.794029, 0.884972, -0.610652, 1926.946266, 2322.867581)">
      <stop offset="0" style="stop-color: rgb(179, 213, 202);"/>
      <stop offset="1" style="stop-color: rgb(66, 166, 206);"/>
    </linearGradient>
  </defs>
  <g id="Baby_Seal_-_Sit_-_Flipper_Orig"/>
  <g id="Baby_Seal_-_Sit_-_Flipper_Left"/>
  <g id="Baby_Seal_-_Sit_-_Body"/>
  <g id="Baby_Seal_-_Sit_-_Head"/>
  <g id="Baby_Seal_-_Sit_-_Flipper_Right"/>
  <g id="Baby_Seal_-_Sit_-_Spots"/>
  <g id="Baby_Seal_-_Sit_-_Eye_RIght"/>
  <g id="Baby_Seal_-_Sit_-_Eye_Left"/>
  <g id="Baby_Seal_-_Sit_-_Mouth"/>
  <g id="Baby_Seal_-_Sit_-_Lip"/>
  <g id="Baby_Seal_-_Sit_-_Nose"/>
  <path d="M 1720.872 490.021 C 1720.872 235.847 1919.44 29.775 2164.403 29.775 C 2409.366 29.775 2607.935 235.847 2607.935 490.021 L 2607.935 907.184 C 2607.935 970.132 2596.256 1030.384 2574.924 1085.933 C 2660.304 1098.164 2721.806 1132.561 2721.806 1173.076 C 2721.806 1223.832 2625.278 1264.968 2506.207 1264.968 C 2490.092 1264.968 2474.39 1264.215 2459.283 1262.787 C 2373.835 1347.523 2258.043 1402.326 2129.396 1409.906 C 2097.141 1443.704 2054.18 1477.484 2003.774 1506.831 C 1868.947 1585.365 1731.855 1602.384 1697.615 1544.918 C 1678.107 1512.147 1696.237 1462.222 1740.422 1410.808 L 936.366 1410.808 C 936.366 1410.808 740.284 1407.473 507.715 1387.328 C 421.7 1379.872 276.818 1425.918 197.876 1546.788 C 210.608 1373.037 315.015 1252.167 315.015 1252.167 C 315.015 1252.167 236.073 1126.261 96.015 1134.385 C 332.841 986.406 470.354 1121.224 470.354 1121.224 C 470.354 1121.224 507.715 1134.385 507.715 1054.672 L 507.773 1054.72 C 507.735 1052.551 507.715 1016.824 507.715 1014.645 L 510.8 969.144 C 524.68 765.844 926.381 681.266 1392.638 650.764 L 1601.835 600.667 L 1720.872 490.021 Z" style="shape-rendering: geometricprecision; stroke: url(#gradient-0); fill: none; stroke-width: 44px;"/>
</svg>