<?xml version="1.0" encoding="utf-8"?>
<svg viewBox="-752.708 -209.495 1914.881 1077.954" width="1914.881" height="1077.954" style="shape-rendering: crispedges;" xmlns="http://www.w3.org/2000/svg">
  <g transform="matrix(1, 0, 0, 1, -755.162231, -209.594986)">
    <path d="M 1048 635 L 851 687 L 1027 842 Z" style="fill: rgb(2, 177, 151);"/>
    <path d="M 851 687 L 835 886 L 1027 842 Z" style="fill: rgb(5, 179, 152);"/>
    <path d="M 1048 635 L 783 400 L 851 687 Z" style="fill: rgb(2, 167, 150);"/>
    <path d="M 1027 842 L 1341 663 L 1048 635 Z" style="fill: rgb(3, 182, 152);"/>
    <path d="M 1048 635 L 1341 663 L 1068 384 Z" style="fill: rgb(2, 174, 151);"/>
    <path d="M 1068 384 L 783 400 L 1048 635 Z" style="fill: rgb(3, 163, 149);"/>
    <path d="M 851 687 L 590 909 L 835 886 Z" style="fill: rgb(35, 174, 152);"/>
    <path d="M 835 886 L 856.6517857142857 1080 L 878.6940298507462 1080 L 1027 842 Z" style="fill: rgb(102, 192, 161);"/>
    <path d="M 1027 842 L 1352 909 L 1341 663 Z" style="fill: rgb(3, 189, 153);"/>
    <path d="M 783 400 L 565 653 L 851 687 Z" style="fill: rgb(5, 160, 149);"/>
    <path d="M 856.6517857142857 1080 L 835 886 L 590 909 L 819.7014925373135 1080 Z" style="fill: rgb(110, 187, 161);"/>
    <path d="M 565 653 L 590 909 L 851 687 Z" style="fill: rgb(10, 166, 150);"/>
    <path d="M 1025.6 1080 L 1147.1758241758241 1080 L 1352 909 L 1027 842 Z" style="fill: rgb(116, 202, 164);"/>
    <path d="M 878.6940298507462 1080 L 1025.6 1080 L 1027 842 Z" style="fill: rgb(139, 203, 167);"/>
    <path d="M 566 221 L 578 402 L 783 400 Z" style="fill: rgb(5, 140, 146);"/>
    <path d="M 783 400 L 578 402 L 565 653 Z" style="fill: rgb(6, 150, 148);"/>
    <path d="M 1513 383 L 1337 360 L 1341 663 Z" style="fill: rgb(7, 175, 151);"/>
    <path d="M 1341 663 L 1337 360 L 1068 384 Z" style="fill: rgb(6, 171, 151);"/>
    <path d="M 1068 384 L 883 170 L 783 400 Z" style="fill: rgb(6, 149, 147);"/>
    <path d="M 1337 360 L 1127 193 L 1068 384 Z" style="fill: rgb(9, 157, 149);"/>
    <path d="M 565 653 L 422 879 L 590 909 Z" style="fill: rgb(20, 163, 150);"/>
    <path d="M 819.7014925373135 1080 L 590 909 L 587.6 1080 Z" style="fill: rgb(145, 192, 167);"/>
    <path d="M 306 683 L 422 879 L 565 653 Z" style="fill: rgb(14, 156, 149);"/>
    <path d="M 1127 193 L 883 170 L 1068 384 Z" style="fill: rgb(9, 149, 147);"/>
    <path d="M 1556.2228571428573 1080 L 1560.7130801687763 1080 L 1544 847 L 1352 909 Z" style="fill: rgb(116, 210, 164);"/>
    <path d="M 1352 909 L 1544 847 L 1341 663 Z" style="fill: rgb(2, 194, 154);"/>
    <path d="M 1147.1758241758241 1080 L 1341.7640845070423 1080 L 1352 909 Z" style="fill: rgb(154, 214, 171);"/>
    <path d="M 447.27016129032256 1080 L 587.6 1080 L 590 909 Z" style="fill: rgb(146, 186, 167);"/>
    <path d="M 1544 847 L 1597 666 L 1341 663 Z" style="fill: rgb(47, 194, 155);"/>
    <path d="M 1597 666 L 1513 383 L 1341 663 Z" style="fill: rgb(41, 185, 154);"/>
    <path d="M 1337 360 L 1376 217 L 1127 193 Z" style="fill: rgb(13, 156, 149);"/>
    <path d="M 883 170 L 566 221 L 783 400 Z" style="fill: rgb(6, 139, 146);"/>
    <path d="M 358 398 L 306 683 L 565 653 Z" style="fill: rgb(10, 148, 147);"/>
    <path d="M 1499 239 L 1376 217 L 1337 360 Z" style="fill: rgb(13, 160, 149);"/>
    <path d="M 358 398 L 565 653 L 578 402 Z" style="fill: rgb(6, 144, 147);"/>
    <path d="M 1341.7640845070423 1080 L 1556.222857142857 1080 L 1352 909 Z" style="fill: rgb(149, 218, 170);"/>
    <path d="M 1775 934 L 1781 649 L 1597 666 Z" style="fill: rgb(113, 206, 164);"/>
    <path d="M 566 221 L 358 398 L 578 402 Z" style="fill: rgb(4, 134, 145); stroke-width: 2px;"/>
    <path d="M 393.8021582733813 1080 L 447.27016129032256 1080 L 590 909 L 422 879 Z" style="fill: rgb(112, 175, 161);"/>
    <path d="M 140 877 L 316.175 1080 L 393.8021582733813 1080 L 422 879 Z" style="fill: rgb(108, 170, 160);"/>
    <path d="M 1834 226 L 1499 239 L 1513 383 Z" style="fill: rgb(83, 171, 156);"/>
    <path d="M 1513 383 L 1499 239 L 1337 360 Z" style="fill: rgb(22, 166, 150);"/>
    <path d="M 1345 0 L 1266.3133802816901 0 L 1127 193 L 1376 217 Z" style="fill: rgb(20, 148, 148);"/>
    <path d="M 1266.3133802816901 0 L 1102.6059479553903 0 L 1127 193 Z" style="fill: rgb(21, 141, 147);"/>
    <path d="M 1127 193 L 1102.6059479553903 0 L 1028.121951219512 0 L 883 170 Z" style="fill: rgb(16, 141, 147);"/>
    <path d="M 883 170 L 711.6923076923076 0 L 605.0836012861737 0 L 566 221 Z" style="fill: rgb(10, 128, 145);"/>
    <path d="M 1775 934 L 1597 666 L 1544 847 Z" style="fill: rgb(98, 206, 161);"/>
    <path d="M 1597 666 L 1771 449 L 1513 383 Z" style="fill: rgb(89, 188, 158);"/>
    <path d="M 358 398 L 151 635 L 306 683 Z" style="fill: rgb(13, 143, 147);"/>
    <path d="M 306 683 L 140 877 L 422 879 Z" style="fill: rgb(24, 156, 149);"/>
    <path d="M 1776.467336683417 1080 L 1775 934 L 1566.7066666666667 1080 Z" style="fill: rgb(194, 230, 179);"/>
    <path d="M 1560.7130801687763 1080 L 1566.7066666666667 1080 L 1775 934 L 1544 847 Z" style="fill: rgb(149, 218, 170);"/>
    <path d="M 151 635 L 140 877 L 306 683 Z" style="fill: rgb(20, 149, 148);"/>
    <path d="M 1028.121951219512 0 L 866.125 0 L 883 170 Z" style="fill: rgb(17, 134, 146);"/>
    <path d="M 566 221 L 386 120 L 358 398 Z" style="fill: rgb(3, 126, 144);"/>
    <path d="M 418.04237288135596 0 L 405.55555555555554 0 L 386 120 L 566 221 Z" style="fill: rgb(6, 119, 143);"/>
    <path d="M 358 398 L 100 428 L 151 635 Z" style="fill: rgb(13, 136, 146);"/>
    <path d="M 1781 649 L 1771 449 L 1597 666 Z" style="fill: rgb(111, 198, 162);"/>
    <path d="M 1526.2991803278687 0 L 1345 0 L 1376 217 Z" style="fill: rgb(24, 148, 148);"/>
    <path d="M 866.125 0 L 711.6923076923077 0 L 883 170 Z" style="fill: rgb(14, 127, 145);"/>
    <path d="M 1540.3308270676691 0 L 1526.299180327869 0 L 1376 217 L 1499 239 Z" style="fill: rgb(40, 156, 150);"/>
    <path d="M 1920 666.2885572139304 L 1920 607.8862559241707 L 1771 449 L 1781 649 Z" style="fill: rgb(137, 205, 167);"/>
    <path d="M 110 142 L 100 428 L 358 398 Z" style="fill: rgb(8, 124, 144);"/>
    <path d="M 151 635 L 0 677.5037037037036 L 0 787.2702702702703 L 140 877 Z" style="fill: rgb(22, 146, 148);"/>
    <path d="M 605.0836012861737 0 L 418.04237288135596 0 L 566 221 Z" style="fill: rgb(8, 119, 143);"/>
    <path d="M 386 120 L 110 142 L 358 398 Z" style="fill: rgb(5, 120, 143);"/>
    <path d="M 1773.5537190082646 0 L 1540.3308270676691 0 L 1499 239 Z" style="fill: rgb(82, 159, 155);"/>
    <path d="M 0 1067.344827586207 L 0 1080 L 93.580204778157 1080 L 140 877 Z" style="fill: rgb(139, 170, 165);"/>
    <path d="M 316.175 1080 L 140 877 L 93.580204778157 1080 Z" style="fill: rgb(140, 174, 166);"/>
    <path d="M 1920 404.8300395256917 L 1920 292.9894736842105 L 1834 226 L 1771 449 Z" style="fill: rgb(139, 188, 166);"/>
    <path d="M 1771 449 L 1834 226 L 1513 383 Z" style="fill: rgb(105, 180, 160);"/>
    <path d="M 1920 751.8743961352657 L 1920 666.2885572139304 L 1781 649 L 1775 934 Z" style="fill: rgb(140, 213, 168);"/>
    <path d="M 1920 934 L 1920 751.8743961352657 L 1775 934 Z" style="fill: rgb(168, 223, 174);"/>
    <path d="M 221 0 L 143.6315789473684 0 L 110 142 L 386 120 Z" style="fill: rgb(7, 111, 142);"/>
    <path d="M 100 428 L 0 557.2237442922375 L 0 677.5037037037036 L 151 635 Z" style="fill: rgb(18, 138, 146);"/>
    <path d="M 1776.467336683417 1080 L 1840.6532663316582 1080 L 1920 1013.9330543933054 L 1920 934 L 1775 934 Z" style="fill: rgb(205, 233, 181);"/>
    <path d="M 1920 1080 L 1920 1013.9330543933054 L 1840.6532663316582 1080 Z" style="fill: rgb(240, 243, 189);"/>
    <path d="M 405.55555555555554 0 L 221 0 L 386 120 Z" style="fill: rgb(7, 111, 142);"/>
    <path d="M 0 403.1020408163265 L 0 557.2237442922375 L 100 428 Z" style="fill: rgb(16, 132, 145);"/>
    <path d="M 1920 227.0817610062893 L 1920 149.93055555555554 L 1779.8051948051948 0 L 1777.7467248908297 0 L 1834 226 Z" style="fill: rgb(135, 175, 165);"/>
    <path d="M 1834 226 L 1777.7467248908297 0 L 1773.5537190082644 0 L 1499 239 Z" style="fill: rgb(103, 168, 159);"/>
    <path d="M 0 869.3809523809524 L 0 1067.344827586207 L 140 877 Z" style="fill: rgb(105, 160, 158);"/>
    <path d="M 1920 607.8862559241707 L 1920 404.8300395256917 L 1771 449 Z" style="fill: rgb(150, 202, 169);"/>
    <path d="M 110 142 L 0 239.05882352941177 L 0 403.1020408163265 L 100 428 Z" style="fill: rgb(9, 119, 143);"/>
    <path d="M 0 787.2702702702703 L 0 869.3809523809524 L 140 877 Z" style="fill: rgb(32, 148, 149);"/>
    <path d="M 1920 292.9894736842105 L 1920 227.0817610062893 L 1834 226 Z" style="fill: rgb(146, 184, 167);"/>
    <path d="M 0 157.24344569288388 L 0 239.05882352941177 L 110 142 Z" style="fill: rgb(7, 113, 142);"/>
    <path d="M 0 68.1574074074074 L 0 157.24344569288388 L 110 142 Z" style="fill: rgb(6, 107, 142);"/>
    <path d="M 0 0 L 0 68.1574074074074 L 110 142 L 143.6315789473684 0 Z" style="fill: rgb(6, 105, 141);"/>
    <path d="M 1920 0 L 1779.8051948051948 0 L 1920 149.93055555555554 Z" style="fill: rgb(144, 172, 166);"/>
  </g>
</svg>