<?xml version="1.0" encoding="utf-8"?>
<svg viewBox="-378.292 157.199 1912.113 1062.159" style="shape-rendering: crispedges;" xmlns="http://www.w3.org/2000/svg">
  <g transform="matrix(1, 0, 0, 1, -381.677307, 151.09726)">
    <path d="M 1067 667 L 773 630 L 866 889 Z" style="fill: rgb(194,194,191);"/>
    <path d="M 773 630 L 614 855 L 866 889 Z" style="fill: rgb(192,192,190);"/>
    <path d="M 883.8343373493976 1080 L 995.7 1080 L 1009 1061 L 866 889 Z" style="fill: rgb(171,165,164);"/>
    <path d="M 866 889 L 1181 958 L 1067 667 Z" style="fill: rgb(181,179,177);"/>
    <path d="M 1009 1061 L 1181 958 L 866 889 Z" style="fill: rgb(174,169,167);"/>
    <path d="M 773 630 L 526 754 L 614 855 Z" style="fill: rgb(198,198,196);"/>
    <path d="M 1181 958 L 1289 884 L 1067 667 Z" style="fill: rgb(175,173,171);"/>
    <path d="M 1274 420 L 1113 357 L 1067 667 Z" style="fill: rgb(201,202,199);"/>
    <path d="M 1067 667 L 1113 357 L 773 630 Z" style="fill: rgb(205,208,203);"/>
    <path d="M 773 630 L 420 618 L 526 754 Z" style="fill: rgb(206,206,204);"/>
    <path d="M 1113 357 L 754 334 L 773 630 Z" style="fill: rgb(213,215,211);"/>
    <path d="M 1181 958 L 1248 1054 L 1289 884 Z" style="fill: rgb(165,159,158);"/>
    <path d="M 1009 1061 L 1248 1054 L 1181 958 Z" style="fill: rgb(165,158,157);"/>
    <path d="M 1384 617 L 1274 420 L 1067 667 Z" style="fill: rgb(193,193,190);"/>
    <path d="M 754 334 L 594 360 L 773 630 Z" style="fill: rgb(217,219,215);"/>
    <path d="M 1289 884 L 1384 617 L 1067 667 Z" style="fill: rgb(181,179,177);"/>
    <path d="M 1549 744 L 1384 617 L 1289 884 Z" style="fill: rgb(172,169,168);"/>
    <path d="M 557.75 1080 L 636.6605839416059 1080 L 866 889 L 614 855 Z" style="fill: rgb(182,178,177);"/>
    <path d="M 636.6605839416059 1080 L 883.8343373493976 1080 L 866 889 Z" style="fill: rgb(173,166,165);"/>
    <path d="M 1009 1061 L 1016.10101010101 1080 L 1237.0526315789473 1080 L 1248 1054 Z" style="fill: rgb(162,154,154);"/>
    <path d="M 594 360 L 420 618 L 773 630 Z" style="fill: rgb(215,218,214);"/>
    <path d="M 1055 104 L 774 220 L 1113 357 Z" style="fill: rgb(219,221,217);"/>
    <path d="M 1113 357 L 774 220 L 754 334 Z" style="fill: rgb(218,220,217);"/>
    <path d="M 754 334 L 774 220 L 594 360 Z" style="fill: rgb(222,224,221);"/>
    <path d="M 396 1003 L 614 855 L 526 754 Z" style="fill: rgb(192,189,189);"/>
    <path d="M 396 1003 L 463.85625 1080 L 557.75 1080 L 614 855 Z" style="fill: rgb(183,177,177);"/>
    <path d="M 420 618 L 396 1003 L 526 754 Z" style="fill: rgb(199,198,196);"/>
    <path d="M 441 151 L 387 411 L 594 360 Z" style="fill: rgb(228,229,226);"/>
    <path d="M 594 360 L 387 411 L 420 618 Z" style="fill: rgb(221,223,220);"/>
    <path d="M 148 936 L 294.3478260869565 1080 L 355.85470085470087 1080 L 396 1003 Z" style="fill: rgb(187,181,179);"/>
    <path d="M 1611 821 L 1549 744 L 1289 884 Z" style="fill: rgb(164,159,160);"/>
    <path d="M 1592 385 L 1368 245 L 1274 420 Z" style="fill: rgb(195,194,192);"/>
    <path d="M 1368 245 L 1113 357 L 1274 420 Z" style="fill: rgb(202,202,200);"/>
    <path d="M 1368 245 L 1055 104 L 1113 357 Z" style="fill: rgb(210,210,207);"/>
    <path d="M 995.7 1080 L 1016.1010101010102 1080 L 1009 1061 Z" style="fill: rgb(167,160,159);"/>
    <path d="M 1592 385 L 1274 420 L 1384 617 Z" style="fill: rgb(190,189,187);"/>
    <path d="M 1465.1351351351352 1080 L 1570.598885793872 1080 L 1611 821 L 1289 884 Z" style="fill: rgb(155,147,148);"/>
    <path d="M 463.85625 1080 L 396 1003 L 355.85470085470087 1080 Z" style="fill: rgb(181,173,173);"/>
    <path d="M 148 936 L 396 1003 L 420 618 Z" style="fill: rgb(198,195,193);"/>
    <path d="M 1311.3492063492063 1080 L 1465.1351351351352 1080 L 1289 884 L 1248 1054 Z" style="fill: rgb(155,146,147);"/>
    <path d="M 1549 744 L 1592 385 L 1384 617 Z" style="fill: rgb(181,179,177);"/>
    <path d="M 1237.0526315789473 1080 L 1248.2626262626263 1080 L 1248 1054 Z" style="fill: rgb(159,150,150);"/>
    <path d="M 774 220 L 534 102 L 594 360 Z" style="fill: rgb(227,228,225);"/>
    <path d="M 533.3939393939394 0 L 510 8 L 534 102 L 697.3805309734513 0 Z" style="fill: rgb(236,237,231);"/>
    <path d="M 534 102 L 441 151 L 594 360 Z" style="fill: rgb(231,232,229);"/>
    <path d="M 1697 438 L 1592 385 L 1549 744 Z" style="fill: rgb(181,178,176);"/>
    <path d="M 1248.2626262626263 1080 L 1311.3492063492063 1080 L 1248 1054 Z" style="fill: rgb(153,143,144);"/>
    <path d="M 54 551 L 420 618 L 76 462 Z" style="fill: rgb(224,226,220);"/>
    <path d="M 54 551 L 148 936 L 420 618 Z" style="fill: rgb(211,211,207);"/>
    <path d="M 1368 245 L 1195.4906367041199 0 L 1158.1746031746031 0 L 1055 104 Z" style="fill: rgb(214,214,209);"/>
    <path d="M 852.0232558139535 0 L 697.3805309734513 0 L 534 102 L 774 220 Z" style="fill: rgb(231,233,227);"/>
    <path d="M 1309.9 0 L 1195.4906367041199 0 L 1368 245 Z" style="fill: rgb(213,212,208);"/>
    <path d="M 534 102 L 510 8 L 441 151 Z" style="fill: rgb(236,237,232);"/>
    <path d="M 982.4736842105264 0 L 852.0232558139535 0 L 774 220 L 1055 104 Z" style="fill: rgb(227,229,223);"/>
    <path d="M 1802 612 L 1697 438 L 1549 744 Z" style="fill: rgb(173,169,167);"/>
    <path d="M 1592 385 L 1585 179 L 1368 245 Z" style="fill: rgb(194,192,191);"/>
    <path d="M 1802 612 L 1549 744 L 1611 821 Z" style="fill: rgb(165,159,159);"/>
    <path d="M 1158.1746031746031 0 L 982.4736842105264 0 L 1055 104 Z" style="fill: rgb(225,226,219);"/>
    <path d="M 1570.598885793872 1080 L 1637.857142857143 1080 L 1729 970 L 1611 821 Z" style="fill: rgb(148,138,139);"/>
    <path d="M 1697 438 L 1585 179 L 1592 385 Z" style="fill: rgb(188,184,183);"/>
    <path d="M 76 462 L 387 411 L 30 115 Z" style="fill: rgb(234,235,230);"/>
    <path d="M 76 462 L 420 618 L 387 411 Z" style="fill: rgb(224,226,221);"/>
    <path d="M 317 46 L 387 411 L 441 151 Z" style="fill: rgb(234,235,231);"/>
    <path d="M 1729 970 L 1802 612 L 1611 821 Z" style="fill: rgb(157,150,150);"/>
    <path d="M 1697 438 L 1771 114 L 1585 179 Z" style="fill: rgb(189,184,184);"/>
    <path d="M 1637.857142857143 1080 L 1713.032258064516 1080 L 1729 970 Z" style="fill: rgb(141,129,130);"/>
    <path d="M 1729 970 L 1920 764.7074829931973 L 1920 634.4253393665158 L 1802 612 Z" style="fill: rgb(156,148,148);"/>
    <path d="M 507.2013201320132 0 L 328.7360703812317 0 L 317 46 L 510 8 Z" style="fill: rgb(242,242,236);"/>
    <path d="M 510 8 L 317 46 L 441 151 Z" style="fill: rgb(238,239,234);"/>
    <path d="M 1481.4259259259259 0 L 1309.9 0 L 1368 245 Z" style="fill: rgb(209,207,203);"/>
    <path d="M 0 958.0895522388059 L 0 1021.4090909090909 L 56.04347826086956 1080 L 57.62758620689655 1080 L 148 936 Z" style="fill: rgb(194,188,185);"/>
    <path d="M 294.3478260869565 1080 L 148 936 L 57.62758620689655 1080 Z" style="fill: rgb(188,181,179);"/>
    <path d="M 1585 179 L 1504.2745098039215 0 L 1481.4259259259259 0 L 1368 245 Z" style="fill: rgb(201,198,196);"/>
    <path d="M 1771 114 L 1543 0 L 1504.2745098039215 0 L 1585 179 Z" style="fill: rgb(198,193,191);"/>
    <path d="M 0 802.7410358565737 L 0 958.0895522388059 L 148 936 Z" style="fill: rgb(204,200,196);"/>
    <path d="M 0 605.687898089172 L 0 802.7410358565737 L 148 936 L 54 551 Z" style="fill: rgb(213,212,207);"/>
    <path d="M 0 440.0085106382979 L 0 511.19718309859155 L 54 551 L 76 462 Z" style="fill: rgb(232,233,226);"/>
    <path d="M 0 511.19718309859155 L 0 605.687898089172 L 54 551 Z" style="fill: rgb(228,229,222);"/>
    <path d="M 1920 944.8294573643411 L 1920 764.7074829931972 L 1729 970 Z" style="fill: rgb(147,136,137);"/>
    <path d="M 533.3939393939394 0 L 511.0769230769231 0 L 510 8 Z" style="fill: rgb(236,237,231);"/>
    <path d="M 1920 320.7897574123989 L 1920 178.7171717171717 L 1771 114 L 1697 438 Z" style="fill: rgb(182,176,175);"/>
    <path d="M 255.88111888111888 0 L 82.61792452830188 0 L 30 115 L 317 46 Z" style="fill: rgb(246,247,239);"/>
    <path d="M 317 46 L 30 115 L 387 411 Z" style="fill: rgb(238,238,233);"/>
    <path d="M 56.04347826086956 1080 L 0 1021.4090909090909 L 0 1080 Z" style="fill: rgb(191,184,180);"/>
    <path d="M 1920 1080 L 1920 1036.4072847682119 L 1729 970 L 1713.032258064516 1080 Z" style="fill: rgb(136,123,124);"/>
    <path d="M 1920 388.561320754717 L 1920 320.7897574123989 L 1697 438 Z" style="fill: rgb(177,169,169);"/>
    <path d="M 30 115 L 0 159.28571428571428 L 0 440.0085106382979 L 76 462 Z" style="fill: rgb(238,238,233);"/>
    <path d="M 328.7360703812317 0 L 255.88111888111888 0 L 317 46 Z" style="fill: rgb(244,245,238);"/>
    <path d="M 0 159.28571428571428 L 30 115 L 0 105.82089552238806 Z" style="fill: rgb(243,243,237);"/>
    <path d="M 511.0769230769231 0 L 507.2013201320132 0 L 510 8 Z" style="fill: rgb(240,240,235);"/>
    <path d="M 1920 178.7171717171717 L 1920 93.7563025210084 L 1830 3 L 1771 114 Z" style="fill: rgb(186,179,177);"/>
    <path d="M 1543 0 L 1771 114 L 1830 3 L 1793.892857142857 0 Z" style="fill: rgb(197,192,188);"/>
    <path d="M 82.61792452830188 0 L 0 0 L 0 105.82089552238806 L 30 115 Z" style="fill: rgb(249,249,241);"/>
    <path d="M 1920 1036.4072847682119 L 1920 944.8294573643411 L 1729 970 Z" style="fill: rgb(138,124,126);"/>
    <path d="M 1920 512.8652037617555 L 1920 388.561320754717 L 1697 438 L 1802 612 Z" style="fill: rgb(174,167,166);"/>
    <path d="M 1920 512.8652037617555 L 1802 612 L 1920 634.4253393665158 Z" style="fill: rgb(169,162,161);"/>
    <path d="M 1793.892857142857 0 L 1830 3 L 1830.144 0 Z" style="fill: rgb(197,192,188);"/>
    <path d="M 1920 0 L 1834.3615384615384 0 L 1830 3 L 1920 93.75630252100841 Z" style="fill: rgb(188,180,178);"/>
    <path d="M 1834.3615384615384 0 L 1830.144 0 L 1830 3 Z" style="fill: rgb(191,183,180);"/>
  </g>
</svg>