<?xml version="1.0" encoding="utf-8"?>
<svg version="1.1" x="0px" y="0px" viewBox="0 0 2793.7864 1657.1458" enable-background="new 0 0 2793.7864 1657.1458" xmlns="http://www.w3.org/2000/svg">
  <defs>
    <linearGradient gradientUnits="userSpaceOnUse" x1="1315.53" y1="49.033" x2="1315.53" y2="1615.811" id="gradient-0" gradientTransform="matrix(-0.572254, -0.820077, 0.903813, -0.630684, 1918.493852, 2403.173843)">
      <stop offset="0" style="stop-color: rgb(179, 213, 202);"/>
      <stop offset="1" style="stop-color: rgb(66, 166, 206);"/>
    </linearGradient>
    <radialGradient gradientUnits="userSpaceOnUse" cx="2155.466" cy="527.598" r="237.063" id="gradient-4" gradientTransform="matrix(-3.991842, -0.113633, 0.07347, -2.580883, 10709.78822, 2164.375238)">
      <stop offset="0" style="stop-color: rgb(255, 255, 255);"/>
      <stop offset="1" style="stop-color: rgb(66, 166, 206);"/>
    </radialGradient>
  </defs>
  <g id="Baby_Seal_-_Sit_-_Flipper_Orig"/>
  <g id="Baby_Seal_-_Sit_-_Flipper_Left"/>
  <g id="Baby_Seal_-_Sit_-_Body"/>
  <g id="Baby_Seal_-_Sit_-_Head"/>
  <g id="Baby_Seal_-_Sit_-_Flipper_Right"/>
  <g id="Baby_Seal_-_Sit_-_Spots"/>
  <g id="Baby_Seal_-_Sit_-_Eye_RIght"/>
  <g id="Baby_Seal_-_Sit_-_Eye_Left"/>
  <g id="Baby_Seal_-_Sit_-_Mouth"/>
  <g id="Baby_Seal_-_Sit_-_Lip"/>
  <g id="Baby_Seal_-_Sit_-_Nose"/>
  <path d="M 1708.032 510.202 C 1708.032 247.69 1910.828 34.857 2161.006 34.857 C 2411.184 34.857 2613.981 247.69 2613.981 510.202 L 2613.981 941.049 C 2613.981 1006.063 2602.053 1068.29 2580.267 1125.662 C 2667.464 1138.295 2730.276 1173.82 2730.276 1215.664 C 2730.276 1268.085 2631.693 1310.57 2510.087 1310.57 C 2493.628 1310.57 2477.592 1309.792 2462.164 1308.317 C 2374.896 1395.834 2256.64 1452.434 2125.254 1460.262 C 2092.312 1495.17 2048.437 1530.058 1996.957 1560.368 C 1859.26 1641.478 1719.249 1659.055 1684.28 1599.704 C 1664.357 1565.858 1682.873 1514.295 1727.999 1461.195 L 906.824 1461.195 C 906.824 1461.195 706.568 1457.75 469.048 1436.944 C 381.202 1429.244 233.235 1476.8 152.612 1601.635 C 165.616 1422.184 272.246 1297.349 272.246 1297.349 C 272.246 1297.349 191.623 1167.313 48.583 1175.704 C 290.451 1022.87 430.891 1162.111 430.891 1162.111 C 430.891 1162.111 469.048 1175.704 469.048 1093.375 L 469.107 1093.425 C 469.068 1091.185 469.048 1054.286 469.048 1052.036 L 472.198 1005.042 C 486.374 795.073 896.627 707.72 1372.81 676.217 L 1708.032 663.427 Z" style="stroke-width: 21px; shape-rendering: crispedges; stroke: url(#gradient-0); fill: rgb(255, 255, 255);"/>
  <ellipse style="fill: url(#gradient-4); fill-opacity: 0.58;" cx="2142.697" cy="554.626" rx="237.063" ry="143.34"/>
  <path d="M 2205.569 490.691 C 2205.569 523.138 2168.305 549.43 2146.83 549.43 C 2126.044 549.43 2088.089 523.138 2088.089 490.691 C 2088.089 458.242 2114.402 456.047 2146.83 456.047 C 2179.258 456.047 2205.569 458.242 2205.569 490.691 Z" style="shape-rendering: crispedges;" fill="#231F20"/>
  <g transform="matrix(1, 0, 0, 1, 8.287841, -12.618473)" style="shape-rendering: crispedges;">
    <circle cx="2367.453" cy="381.663" r="69.347" fill="#231F20"/>
    <path d="M 2401.222 351.694 C 2401.222 362.076 2392.811 370.509 2382.429 370.509 C 2372.047 370.509 2363.635 362.076 2363.635 351.694 C 2363.635 341.312 2372.047 332.9 2382.429 332.9 C 2392.811 332.9 2401.222 341.312 2401.222 351.694 Z" fill="#FFFFFF"/>
  </g>
  <g transform="matrix(1, 0, 0, 1, -65.74498, -18.91914)" style="shape-rendering: crispedges;">
    <circle cx="1966.798" cy="381.663" r="69.346" fill="#231F20"/>
    <path d="M 2000.568 351.694 C 2000.568 362.076 1992.157 370.509 1981.772 370.509 C 1971.39 370.509 1962.979 362.076 1962.979 351.694 C 1962.979 341.312 1971.39 332.9 1981.772 332.9 C 1992.157 332.9 2000.568 341.312 2000.568 351.694 Z" fill="#FFFFFF"/>
  </g>
  <path style="stroke: rgb(0, 0, 0); stroke-width: 19px; fill: none;" d="M 2146.621 535.723 C 2146.621 553.494 2147.856 584.583 2140.99 598.501 C 2132.182 616.361 2114.838 609.874 2097.827 615.623 C 2056.004 629.756 1998.009 581.016 1970.216 552.843"/>
  <path style="stroke: rgb(0, 0, 0); stroke-width: 19px; fill: none;" d="M 2327.729 617.886 C 2327.729 600.115 2328.964 569.026 2322.098 555.108 C 2313.29 537.248 2295.946 543.735 2278.935 537.986 C 2237.112 523.853 2179.117 572.593 2151.324 600.766" transform="matrix(-1, 0, 0, -1, 4479.139404, 1153.355225)"/>
</svg>