<?xml version="1.0" encoding="utf-8"?>
<svg viewBox="-444.228 111.786 1911.723 1076.064" style="shape-rendering: crispedges;" xmlns="http://www.w3.org/2000/svg">
  <g transform="matrix(1, 0, 0, 1, -447.473938, 108.415901)">
    <path d="M 824 588 L 822 494 L 608 650 Z" style="fill: rgb(68,140,137);"/>
    <path d="M 822 494 L 560 357 L 608 650 Z" style="fill: rgb(47,129,130);"/>
    <path d="M 560 357 L 331 503 L 608 650 Z" style="fill: rgb(44,122,126);"/>
    <path d="M 331 503 L 288 596 L 608 650 Z" style="fill: rgb(65,123,125);"/>
    <path d="M 1001 196 L 878 146 L 822 494 Z" style="fill: rgb(44,123,126);"/>
    <path d="M 822 494 L 878 146 L 560 357 Z" style="fill: rgb(43,121,125);"/>
    <path d="M 560 357 L 359 184 L 331 503 Z" style="fill: rgb(39,105,113);"/>
    <path d="M 379 885 L 661 981 L 608 650 Z" style="fill: rgb(146,164,154);"/>
    <path d="M 608 650 L 912 939 L 824 588 Z" style="fill: rgb(124,163,153);"/>
    <path d="M 661 981 L 912 939 L 608 650 Z" style="fill: rgb(149,170,158);"/>
    <path d="M 824 588 L 1134 671 L 822 494 Z" style="fill: rgb(75,148,142);"/>
    <path d="M 912 939 L 1033 846 L 824 588 Z" style="fill: rgb(149,179,163);"/>
    <path d="M 1033 846 L 1134 671 L 824 588 Z" style="fill: rgb(127,170,157);"/>
    <path d="M 675 29 L 526 118 L 560 357 Z" style="fill: rgb(39,92,103);"/>
    <path d="M 1144 386 L 1001 196 L 822 494 Z" style="fill: rgb(56,133,132);"/>
    <path d="M 288 596 L 379 885 L 608 650 Z" style="fill: rgb(111,143,139);"/>
    <path d="M 1134 671 L 1144 386 L 822 494 Z" style="fill: rgb(73,147,142);"/>
    <path d="M 526 118 L 359 184 L 560 357 Z" style="fill: rgb(37,97,108);"/>
    <path d="M 331 503 L 91 498 L 288 596 Z" style="fill: rgb(45,99,106);"/>
    <path d="M 871 15 L 675 29 L 878 146 Z" style="fill: rgb(41,81,93);"/>
    <path d="M 878 146 L 675 29 L 560 357 Z" style="fill: rgb(41,98,107);"/>
    <path d="M 218.0990990990991 0 L 184.97457627118644 0 L 164 198 L 359 184 Z" style="fill: rgb(33,55,74);"/>
    <path d="M 1004.2 0 L 902.40625 0 L 871 15 L 1001 196 Z" style="fill: rgb(44,85,95);"/>
    <path d="M 1001 196 L 871 15 L 878 146 Z" style="fill: rgb(44,95,104);"/>
    <path d="M 661 981 L 791.4651162790698 1080 L 845.2105263157895 1080 L 912 939 Z" style="fill: rgb(146,165,153);"/>
    <path d="M 1271.957627118644 1080 L 1275.340909090909 1080 L 1392 906 L 1033 846 Z" style="fill: rgb(201,198,175);"/>
    <path d="M 617.0728476821192 1080 L 791.4651162790698 1080 L 661 981 Z" style="fill: rgb(141,157,147);"/>
    <path d="M 379 885 L 548.7368421052631 1080 L 617.0728476821192 1080 L 661 981 Z" style="fill: rgb(140,155,147);"/>
    <path d="M 1367 613 L 1261 339 L 1144 386 Z" style="fill: rgb(118,161,151);"/>
    <path d="M 1144 386 L 1261 339 L 1001 196 Z" style="fill: rgb(89,141,138);"/>
    <path d="M 164 198 L 91 498 L 331 503 Z" style="fill: rgb(40,86,97);"/>
    <path d="M 288 596 L 102 726 L 379 885 Z" style="fill: rgb(114,128,127);"/>
    <path d="M 91 498 L 102 726 L 288 596 Z" style="fill: rgb(69,100,107);"/>
    <path d="M 548.7368421052631 1080 L 379 885 L 357.5975609756098 1080 Z" style="fill: rgb(135,143,138);"/>
    <path d="M 218.0990990990991 0 L 359 184 L 336.49235474006116 0 Z" style="fill: rgb(30,41,62);"/>
    <path d="M 359 184 L 164 198 L 331 503 Z" style="fill: rgb(37,88,100);"/>
    <path d="M 1240 103 L 1080.7565789473683 0 L 1004.2 0 L 1001 196 Z" style="fill: rgb(70,99,106);"/>
    <path d="M 687.8018018018018 0 L 662.2992700729927 0 L 675 29 Z" style="fill: rgb(38,66,81);"/>
    <path d="M 1392 906 L 1367 613 L 1134 671 Z" style="fill: rgb(192,199,177);"/>
    <path d="M 1134 671 L 1367 613 L 1144 386 Z" style="fill: rgb(119,167,155);"/>
    <path d="M 1476 614 L 1367 613 L 1392 906 Z" style="fill: rgb(206,206,181);"/>
    <path d="M 1512 108 L 1240 103 L 1261 339 Z" style="fill: rgb(121,138,135);"/>
    <path d="M 1261 339 L 1240 103 L 1001 196 Z" style="fill: rgb(92,130,130);"/>
    <path d="M 0 698.3046357615895 L 0 805.4754098360656 L 44 841 L 102 726 Z" style="fill: rgb(104,101,106);"/>
    <path d="M 102 726 L 44 841 L 379 885 Z" style="fill: rgb(133,129,127);"/>
    <path d="M 84 1043 L 140.37058823529412 1080 L 357.5975609756098 1080 L 379 885 Z" style="fill: rgb(129,126,125);"/>
    <path d="M 1512 108 L 1246 16 L 1240 103 Z" style="fill: rgb(113,117,118);"/>
    <path d="M 1080.7565789473683 0 L 1240 103 L 1246 16 L 1186.676923076923 0 Z" style="fill: rgb(81,94,102);"/>
    <path d="M 432.41379310344826 0 L 336.49235474006116 0 L 359 184 L 526 118 Z" style="fill: rgb(34,60,78);"/>
    <path d="M 164 198 L 0 301.5215946843854 L 0 454.0964912280702 L 91 498 Z" style="fill: rgb(37,68,83);"/>
    <path d="M 432.41379310344826 0 L 526 118 L 535.4269972451791 0 Z" style="fill: rgb(33,58,76);"/>
    <path d="M 662.2992700729927 0 L 535.4269972451791 0 L 526 118 L 675 29 Z" style="fill: rgb(36,62,79);"/>
    <path d="M 1392 906 L 1134 671 L 1033 846 Z" style="fill: rgb(197,201,178);"/>
    <path d="M 1367 613 L 1609 435 L 1261 339 Z" style="fill: rgb(148,175,161);"/>
    <path d="M 1271.957627118644 1080 L 1033 846 L 1105.3977900552486 1080 Z" style="fill: rgb(182,185,166);"/>
    <path d="M 44 841 L 84 1043 L 379 885 Z" style="fill: rgb(129,122,122);"/>
    <path d="M 1034.1301115241636 1080 L 1105.3977900552486 1080 L 1033 846 L 912 939 Z" style="fill: rgb(163,178,161);"/>
    <path d="M 1034.1301115241636 1080 L 912 939 L 845.2105263157895 1080 Z" style="fill: rgb(148,167,154);"/>
    <path d="M 868.6959247648903 0 L 871 15 L 902.40625 0 Z" style="fill: rgb(42,73,86);"/>
    <path d="M 868.6959247648903 0 L 687.8018018018018 0 L 675 29 L 871 15 Z" style="fill: rgb(40,70,84);"/>
    <path d="M 0 221.42857142857142 L 0 301.5215946843854 L 164 198 Z" style="fill: rgb(34,59,77);"/>
    <path d="M 91 498 L 0 543.6563573883161 L 0 698.3046357615895 L 102 726 Z" style="fill: rgb(70,86,95);"/>
    <path d="M 44 841 L 0 841.4251207729469 L 0 974.9838056680162 L 84 1043 Z" style="fill: rgb(121,105,109);"/>
    <path d="M 0 454.0964912280702 L 0 543.6563573883161 L 91 498 Z" style="fill: rgb(42,74,87);"/>
    <path d="M 0 805.4754098360655 L 0 841.4251207729469 L 44 841 Z" style="fill: rgb(115,106,110);"/>
    <path d="M 1436.867924528302 1080 L 1392 906 L 1275.340909090909 1080 Z" style="fill: rgb(222,202,177);"/>
    <path d="M 1436.867924528302 1080 L 1506.7272727272727 1080 L 1559 850 L 1392 906 Z" style="fill: rgb(235,211,184);"/>
    <path d="M 1392 906 L 1559 850 L 1476 614 Z" style="fill: rgb(236,219,190);"/>
    <path d="M 1864 631 L 1609 435 L 1476 614 Z" style="fill: rgb(159,179,162);"/>
    <path d="M 1476 614 L 1609 435 L 1367 613 Z" style="fill: rgb(160,184,166);"/>
    <path d="M 1609 435 L 1512 108 L 1261 339 Z" style="fill: rgb(146,164,154);"/>
    <path d="M 8.373540856031127 0 L 0 0 L 0 221.42857142857142 L 164 198 Z" style="fill: rgb(28,36,58);"/>
    <path d="M 8.373540856031127 0 L 164 198 L 184.97457627118644 0 Z" style="fill: rgb(27,30,53);"/>
    <path d="M 1247.653746770026 0 L 1186.676923076923 0 L 1246 16 Z" style="fill: rgb(83,91,99);"/>
    <path d="M 1512 108 L 1510.1052631578948 0 L 1299.26582278481 0 L 1246 16 Z" style="fill: rgb(124,113,115);"/>
    <path d="M 140.37058823529412 1080 L 84 1043 L 85.27586206896552 1080 Z" style="fill: rgb(123,114,116);"/>
    <path d="M 0 974.9838056680162 L 0 1080 L 42.96794871794874 1080 L 84 1043 Z" style="fill: rgb(117,98,104);"/>
    <path d="M 42.96794871794874 1080 L 85.27586206896552 1080 L 84 1043 Z" style="fill: rgb(117,99,104);"/>
    <path d="M 1684.1470588235295 1080 L 1707.273615635179 1080 L 1709 815 L 1559 850 Z" style="fill: rgb(233,208,182);"/>
    <path d="M 1559 850 L 1709 815 L 1476 614 Z" style="fill: rgb(224,211,184);"/>
    <path d="M 1609 435 L 1838 137 L 1512 108 Z" style="fill: rgb(138,147,141);"/>
    <path d="M 1299.26582278481 0 L 1247.653746770026 0 L 1246 16 Z" style="fill: rgb(110,103,108);"/>
    <path d="M 1864 631 L 1794 449 L 1609 435 Z" style="fill: rgb(149,170,156);"/>
    <path d="M 1506.7272727272727 1080 L 1684.1470588235295 1080 L 1559 850 Z" style="fill: rgb(229,202,177);"/>
    <path d="M 1709 815 L 1864 631 L 1476 614 Z" style="fill: rgb(199,196,174);"/>
    <path d="M 1702.131736526946 0 L 1510.1052631578948 0 L 1512 108 Z" style="fill: rgb(122,105,109);"/>
    <path d="M 1920 883.8432203389831 L 1920 811.4444444444445 L 1864 631 L 1709 815 Z" style="fill: rgb(224,205,179);"/>
    <path d="M 1794 449 L 1838 137 L 1609 435 Z" style="fill: rgb(142,158,149);"/>
    <path d="M 1920 279.43617021276594 L 1920 170.59722222222223 L 1838 137 L 1794 449 Z" style="fill: rgb(136,147,141);"/>
    <path d="M 1838 137 L 1815.6326530612246 0 L 1702.131736526946 0 L 1512 108 Z" style="fill: rgb(124,113,115);"/>
    <path d="M 1920 1080 L 1920 916.1596638655462 L 1750.4608695652173 1080 Z" style="fill: rgb(222,192,169);"/>
    <path d="M 1707.273615635179 1080 L 1750.4608695652173 1080 L 1920 916.1596638655462 L 1920 883.8432203389831 L 1709 815 Z" style="fill: rgb(230,203,178);"/>
    <path d="M 1920 454.70566037735847 L 1920 279.43617021276594 L 1794 449 Z" style="fill: rgb(140,155,146);"/>
    <path d="M 1920 582.1794871794872 L 1920 454.70566037735847 L 1794 449 L 1864 631 Z" style="fill: rgb(146,166,153);"/>
    <path d="M 1815.6326530612246 0 L 1838 137 L 1920 15.012345679012341 L 1920 0 Z" style="fill: rgb(116,97,103);"/>
    <path d="M 1920 645.9482071713147 L 1920 582.1794871794872 L 1864 631 Z" style="fill: rgb(165,175,159);"/>
    <path d="M 1920 15.012345679012341 L 1838 137 L 1920 170.59722222222223 Z" style="fill: rgb(122,110,113);"/>
    <path d="M 1920 811.4444444444445 L 1920 645.9482071713147 L 1864 631 Z" style="fill: rgb(210,196,173);"/>
  </g>
</svg>